# xmcd
# 
# Track frame offsets:
#     150
#     37125
#     59613
#     70132
#     86739
#     97036
#     111477
#     136647
#     157377
#     182772
#     195909
#     214385
#     233915
#     251690
# 
# Disc length: 3793
# 
# Revision: 1
# Processed by: cddbd v1.5.2PL0 Copyright (c) Steve Scherf et al.
# Submitted via: BonkEnc v1.0.8
# 
DISCID=d50ecf0e
DTITLE=Bluespumpm - You Got It-1995
DYEAR=1995
DGENRE=Blues
TTITLE0=Driftin'
TTITLE1=Love Is Just A Four-Letter Word
TTITLE2=It's All Wrong
TTITLE3=Leather Jacket
TTITLE4=Warmup: Take Me Home Country Roads
TTITLE5=Take Me Home Country Roads
TTITLE6=This Time
TTITLE7=One For The Road
TTITLE8=Standin' At The Corner
TTITLE9=Whistlin' Wolf
TTITLE10=She Caught The Katy
TTITLE11=You Got It
TTITLE12=Doesn't Matter
TTITLE13=Rock Me Baby
EXTD=Columbia-22.09.1995-COL 481713-2
EXTT0=
EXTT1=
EXTT2=
EXTT3=
EXTT4=
EXTT5=
EXTT6=
EXTT7=
EXTT8=
EXTT9=
EXTT10=
EXTT11=
EXTT12=
EXTT13=
PLAYORDER=
